<svg width="399" height="475" viewBox="0 0 399 475" fill="none" xmlns="http://www.w3.org/2000/svg">
<path d="M43.5847 26.8944C43.5847 26.8944 41.9413 12.7225 50.3641 4.71227C58.7868 -3.29795 79.125 10.874 79.125 10.874L198.893 88.3061L43.9957 56.8814L43.3794 27.0998L43.5847 26.8944Z" fill="#00CC5F"/>
<path d="M360.569 24.6352C360.569 24.6352 362.212 10.4632 353.79 2.453C345.367 -5.55722 325.029 8.6147 325.029 8.6147L199.098 88.5115L360.158 54.6221L360.774 24.8405L360.569 24.6352Z" fill="#00753D"/>
<path d="M383.783 276.444L380.496 336.007H381.112L379.469 454.312C378.852 472.797 352.557 481.218 337.766 467.662L199.098 338.266L195.811 341.553L60.4301 468.073C45.6389 481.423 19.3434 472.797 19.3434 454.723L17.0836 336.418H17.6999L14.4128 276.444L19.9596 170.052C20.5759 147.253 45.6388 123.223 75.4267 116.239L199.303 88.5117L346.394 56.4709C375.976 49.4876 399.601 63.0433 398.574 85.6363L384.193 276.444H383.783Z" fill="#00CC5F"/>
<path d="M380.496 335.801H381.112L379.469 454.106C378.852 472.591 352.557 481.012 337.766 467.456L199.098 338.061L195.811 341.347L60.4301 467.867C45.6389 481.218 19.3434 472.591 19.3434 454.517L17.0836 336.212H17.6998L14.4128 276.238L0.0325381 86.0468C-0.99463 63.2484 22.425 49.8981 52.2129 56.8813L199.303 88.3061L325.439 116.65C355.022 123.633 380.29 147.664 380.701 170.462L383.988 276.444L380.701 336.007L380.496 335.801Z" fill="#00753D"/>
<path d="M198.893 88.3061V338.061L60.2249 467.867C45.4337 481.218 19.1382 472.591 19.1382 454.517L16.8784 336.212H17.4947L14.2076 276.238L19.7544 169.846C20.3707 147.048 45.4336 123.017 75.2215 116.034L169.515 94.6732L199.098 88.1007L198.893 88.3061Z" fill="#00CC5F"/>
</svg>
