<svg width="451" height="117" viewBox="0 0 451 117" fill="none" xmlns="http://www.w3.org/2000/svg">
<path d="M10.6837 6.59262C10.6837 6.59262 10.2808 3.11865 12.3455 1.15508C14.4102 -0.80848 19.3957 2.6655 19.3957 2.6655L48.7546 21.6466L10.7844 13.9434L10.6333 6.64302L10.6837 6.59262Z" fill="white"/>
<path d="M88.3869 6.03885C88.3869 6.03885 88.7898 2.56488 86.7251 0.601313C84.6604 -1.36225 79.6749 2.11172 79.6749 2.11172L48.8052 21.697L88.2862 13.3897L88.4373 6.08924L88.3869 6.03885Z" fill="#D3D3D3"/>
<path d="M94.0772 67.7149L93.2715 82.3158H93.4226L93.0197 111.316C92.8686 115.847 86.4227 117.912 82.7969 114.589L48.805 82.8696L47.9992 83.6751L14.813 114.689C11.1872 117.962 4.74132 115.847 4.74132 111.417L4.18737 82.4164H4.33845L3.53271 67.7149L4.89239 41.6347C5.04347 36.0461 11.1872 30.1554 18.4892 28.4436L48.8553 21.6467L84.912 13.7924C92.1636 12.0806 97.9548 15.4035 97.703 20.9418L94.1779 67.7149H94.0772Z" fill="white"/>
<path d="M93.2718 82.3158H93.4229L93.02 111.316C92.869 115.847 86.4231 117.912 82.7973 114.589L48.8053 82.8696L47.9996 83.6751L14.8134 114.689C11.1876 117.962 4.74167 115.847 4.74167 111.417L4.18773 82.4164H4.3388L3.53307 67.7149L0.00797621 21.0928C-0.243816 15.5042 5.49705 12.2316 12.799 13.9434L48.8557 21.6467L79.7758 28.5946C87.0274 30.3064 93.2215 36.1972 93.3222 41.7858L94.1279 67.7653L93.3222 82.3661L93.2718 82.3158Z" fill="#D3D3D3"/>
<path d="M48.805 21.6466V82.8696L14.813 114.689C11.1872 117.962 4.74132 115.847 4.74132 111.417L4.18737 82.4164H4.33845L3.53271 67.7149L4.89239 41.6347C5.04347 36.0461 11.1872 30.1554 18.4892 28.4436L41.6037 23.2074L48.8553 21.5963L48.805 21.6466Z" fill="white"/>
<path d="M121.976 27.3359H147.609C161.759 27.3359 167.5 34.7371 167.5 42.8431C167.5 49.7911 163.673 54.3224 159.392 56.1349C163.572 57.6453 169.363 61.9753 169.363 70.333C169.363 81.1578 160.954 88.5086 148.414 88.5086H122.026V27.3359H121.976ZM146.047 51.9057C153.198 51.9057 156.119 48.8345 156.119 44.0011C156.119 39.1677 152.544 36.3482 146.752 36.3482H133.256V51.9057H146.098H146.047ZM133.206 79.4963H146.249C153.601 79.4963 157.529 76.2741 157.529 70.0309C157.529 64.4927 153.954 60.918 145.645 60.918H133.206V79.4963Z" fill="white"/>
<path d="M177.27 23.862H188.248V34.6364H177.27V23.862ZM177.27 43.0948H188.248V88.5589H177.27V43.0948Z" fill="white"/>
<path d="M193.787 43.0445H201.089V30.3568H212.067V43.0445H221.333V51.5029H212.067V75.3678C212.067 79.1439 213.125 80.8053 217.002 80.8053C217.859 80.8053 219.218 80.8053 220.225 80.6039V88.3575C217.909 89.1631 214.736 89.2134 212.319 89.2134C204.06 89.2134 201.039 84.8332 201.039 77.0293V51.5533H193.737V43.0948L193.787 43.0445Z" fill="white"/>
<path d="M242.685 32.3707H222.29V26.7822H269.476V32.3707H249.03V88.5589H242.635V32.3707H242.685Z" fill="white"/>
<path d="M303.166 66.2044C303.166 78.7913 296.065 89.6162 282.67 89.6162C270.332 89.6162 262.728 79.748 262.728 66.3051C262.728 52.8622 269.98 42.9437 283.123 42.9437C295.209 42.9437 303.166 52.2077 303.166 66.1541V66.2044ZM268.872 66.3051C268.872 76.5257 274.21 84.4303 282.972 84.4303C291.734 84.4303 296.972 77.0292 296.972 66.3554C296.972 55.6817 291.986 48.2303 282.821 48.2303C273.656 48.2303 268.872 55.8831 268.872 66.3554V66.3051Z" fill="white"/>
<path d="M317.82 82.4668V106.231H311.928V54.9769C311.928 51.3518 311.928 47.4751 311.827 44.0514H317.618C317.82 45.6625 317.82 48.331 317.82 51.6036C320.438 46.6695 325.122 42.9941 332.978 42.9941C343.402 42.9941 350.754 51.7043 350.754 65.1472C350.754 81.1074 342.193 89.6162 331.417 89.6162C323.863 89.6162 319.935 86.3436 317.82 82.4668ZM344.61 65.3989C344.61 55.4804 339.927 48.331 331.668 48.331C321.597 48.331 317.518 54.6748 317.518 66.2044C317.518 77.7341 320.791 84.4304 331.064 84.4304C339.826 84.4304 344.61 77.1299 344.61 65.4492V65.3989Z" fill="white"/>
<path d="M359.869 23.4592H365.811V32.5219H359.869V23.4592ZM359.869 44.0515H365.811V88.5589H359.869V44.0515Z" fill="white"/>
<path d="M411.889 75.2167C409.875 82.9703 404.688 89.6162 394.113 89.6162C382.48 89.6162 374.674 81.1074 374.674 66.5066C374.674 54.121 381.473 42.9941 394.616 42.9941C406.602 42.9941 411.184 51.5029 411.839 57.5446H405.897C404.688 52.6609 401.515 48.2303 394.465 48.2303C385.753 48.2303 380.818 55.6818 380.818 66.3051C380.818 76.9285 385.501 84.4304 394.113 84.4304C400.206 84.4304 403.782 81.3088 405.897 75.2167H411.839H411.889Z" fill="white"/>
<path d="M422.717 76.0223C424.127 81.4095 428.004 84.5814 434.551 84.5814C441.853 84.5814 444.774 81.3088 444.774 76.7272C444.774 72.1455 442.659 69.8295 433.393 67.5638C421.357 64.6437 418.587 60.9682 418.587 55.0272C418.587 49.0862 423.22 42.8934 433.896 42.8934C444.572 42.8934 449.356 49.2876 450.011 55.5307H444.22C443.515 52.1574 440.896 47.8275 433.645 47.8275C426.393 47.8275 424.53 51.3015 424.53 54.5238C424.53 58.2495 426.544 60.1124 435.055 62.1767C448.047 65.2982 450.968 69.5777 450.968 76.2237C450.968 84.1786 444.572 89.5155 434.4 89.5155C423.623 89.5155 417.933 83.9772 416.724 75.9719H422.666L422.717 76.0223Z" fill="white"/>
</svg>
