<svg width="898" height="988" viewBox="0 0 898 988" fill="none" xmlns="http://www.w3.org/2000/svg">
<path d="M431.419 0.331824C198.605 9.16825 9.09032 195.656 0.457601 424.48C-8.98444 675.725 196.043 881.337 449.629 881.337V979.46C449.629 984.868 454.889 988.956 460.285 987.637C745.569 913.913 897.856 677.967 897.856 441.23C897.856 191.832 687.298 -9.29592 431.419 0.331824ZM637.121 568.764H294.375C275.76 568.764 260.788 553.993 260.788 535.661C260.788 517.46 275.895 502.557 294.375 502.557H637.121V568.764ZM637.121 477.499H294.375C275.76 477.499 260.788 462.727 260.788 444.395C260.788 426.195 275.895 411.291 294.375 411.291H637.121V477.499ZM637.121 386.233H294.375C275.76 386.233 260.788 371.462 260.788 353.129C260.788 334.929 275.895 320.026 294.375 320.026H637.121V386.233Z" fill="#7E06F2"/>
</svg>
