<svg width="895" height="250" viewBox="0 0 895 250" fill="none" xmlns="http://www.w3.org/2000/svg">
<path d="M359.046 131.327C363.24 136.485 365.354 142.576 365.354 149.531C365.354 159.216 362.099 166.871 355.624 172.462C349.116 178.053 339.722 180.882 327.41 180.882H277.792V65.6309H326.404C338.079 65.6309 347.036 68.1935 353.31 73.2854C359.583 78.4106 362.703 85.566 362.703 94.818C362.703 102.007 360.825 107.864 357.067 112.457C353.31 117.016 348.378 120.011 342.272 121.443C349.25 122.874 354.853 126.168 359.046 131.327ZM300.873 113.954H321.673C327.444 113.954 331.839 112.69 334.858 110.127C337.844 107.565 339.353 103.904 339.353 99.1112C339.353 94.3188 337.877 90.6246 334.925 88.0288C331.973 85.4329 327.444 84.1016 321.338 84.1016H300.873V113.954ZM336.871 158.085C340.159 155.422 341.769 151.528 341.769 146.403C341.769 141.278 340.092 137.351 336.77 134.555C333.449 131.793 328.719 130.395 322.613 130.395H300.84V162.045H322.781C328.92 162.078 333.617 160.747 336.871 158.085Z" fill="#fff"/>
<path d="M382.866 55.4476C385.483 53.1179 388.905 51.9531 393.165 51.9531C397.426 51.9531 400.848 53.1179 403.465 55.4476C406.081 57.7772 407.39 60.8058 407.39 64.4999C407.39 68.0943 406.081 71.0562 403.465 73.3859C400.848 75.7155 397.426 76.8804 393.165 76.8804C388.905 76.8804 385.483 75.7155 382.866 73.3859C380.249 71.0562 378.941 68.0943 378.941 64.4999C378.941 60.8058 380.249 57.7772 382.866 55.4476ZM404.639 90.4589V180.882H381.557V90.4589H404.639Z" fill="#fff"/>
<path d="M474.017 161.113V180.849H461.906C451.775 180.849 443.991 178.386 438.59 173.494C433.189 168.601 430.505 160.448 430.505 148.999V109.861H417.891V90.4252H430.505V68.0605H453.586V90.4252H473.883V109.861H453.586V149.365C453.586 153.725 454.458 156.754 456.203 158.517C457.948 160.248 460.9 161.113 465.026 161.113H474.017Z" fill="#fff"/>
<path d="M575.736 131.56C579.829 136.686 581.875 142.609 581.875 149.332C581.875 159.25 578.587 166.971 571.978 172.496C565.369 178.053 555.909 180.816 543.596 180.816H489.751V65.4648H542.288C554.063 65.4648 563.189 68.0275 569.63 73.1194C576.071 78.2446 579.292 85.5331 579.292 94.9848C579.292 101.94 577.447 107.731 573.723 112.357C569.999 116.983 565.168 120.012 559.163 121.41C566.107 123.074 571.643 126.468 575.736 131.56ZM517.73 112.624H536.048C545.743 112.624 550.608 108.497 550.608 100.21C550.608 91.9563 545.643 87.7962 535.712 87.7962H517.697V112.624H517.73ZM553.225 145.438C553.225 141.312 551.849 138.083 549.132 135.72C546.414 133.391 542.523 132.226 537.524 132.226H517.73V158.185H537.692C548.058 158.185 553.225 153.925 553.225 145.438Z" fill="#fff"/>
<path d="M663.633 94.2865C670.779 98.0473 676.382 103.439 680.475 110.528C684.567 117.616 686.614 125.87 686.614 135.322C686.614 144.773 684.567 153.06 680.475 160.116C676.382 167.205 670.779 172.596 663.633 176.357C656.487 180.117 648.369 181.981 639.344 181.981C630.286 181.981 622.167 180.117 614.954 176.357C607.741 172.596 602.105 167.205 598.012 160.116C593.919 153.06 591.873 144.773 591.873 135.322C591.873 125.87 593.919 117.583 598.012 110.528C602.105 103.472 607.741 98.0473 614.954 94.2865C622.167 90.5258 630.286 88.6621 639.344 88.6621C648.369 88.6621 656.487 90.5258 663.633 94.2865ZM625.824 118.581C622.167 122.442 620.356 128.033 620.356 135.322C620.356 142.61 622.167 148.168 625.824 151.962C629.481 155.756 633.976 157.686 639.311 157.686C644.645 157.686 649.14 155.789 652.73 151.962C656.32 148.168 658.131 142.61 658.131 135.322C658.131 128.033 656.32 122.442 652.73 118.581C649.14 114.721 644.645 112.791 639.311 112.791C633.976 112.791 629.481 114.721 625.824 118.581Z" fill="#fff"/>
<path d="M768.204 94.2865C775.349 98.0473 780.986 103.439 785.045 110.528C789.138 117.616 791.184 125.87 791.184 135.322C791.184 144.773 789.138 153.06 785.045 160.116C780.952 167.205 775.349 172.596 768.204 176.357C761.058 180.117 752.939 181.981 743.914 181.981C734.856 181.981 726.738 180.117 719.525 176.357C712.312 172.596 706.676 167.205 702.583 160.116C698.49 153.06 696.443 144.773 696.443 135.322C696.443 125.87 698.49 117.583 702.583 110.528C706.676 103.472 712.312 98.0473 719.525 94.2865C726.738 90.5258 734.856 88.6621 743.914 88.6621C752.939 88.6621 761.058 90.5258 768.204 94.2865ZM730.394 118.581C726.738 122.442 724.926 128.033 724.926 135.322C724.926 142.61 726.738 148.168 730.394 151.962C734.051 155.756 738.547 157.686 743.881 157.686C749.215 157.686 753.711 155.789 757.3 151.962C760.89 148.168 762.702 142.61 762.702 135.322C762.702 128.033 760.89 122.442 757.3 118.581C753.711 114.721 749.215 112.791 743.881 112.791C738.547 112.791 734.051 114.721 730.394 118.581Z" fill="#fff"/>
<path d="M861.066 180.85L833.724 142.178V180.85H805.744V60.1074H833.724V126.369L861.066 89.8271H893.977L857.14 135.355L894.782 180.883H861.066V180.85Z" fill="#fff"/>
<path d="M107.265 0.36889C49.3607 2.5987 2.22509 49.6576 0.0779872 107.4C-2.27041 170.799 48.7233 222.684 111.794 222.684V247.445C111.794 248.809 113.103 249.841 114.445 249.508C185.4 230.904 223.276 171.365 223.276 111.626C223.276 48.6924 170.907 -2.0606 107.265 0.36889ZM158.427 143.809H73.1801C68.5504 143.809 64.8266 140.081 64.8266 135.455C64.8266 130.862 68.584 127.102 73.1801 127.102H158.427V143.809ZM158.427 120.778H73.1801C68.5504 120.778 64.8266 117.051 64.8266 112.425C64.8266 107.832 68.584 104.072 73.1801 104.072H158.427V120.778ZM158.427 97.7482H73.1801C68.5504 97.7482 64.8266 94.0207 64.8266 89.3947C64.8266 84.802 68.584 81.0413 73.1801 81.0413H158.427V97.7482Z" fill="#fff"/>
</svg>
